<svg xmlns="http://www.w3.org/2000/svg" viewBox="0 0 680 600" font-family="Inter, system-ui, sans-serif">
  <style>
    .title { font-size: 14px; font-weight: 600; }
    .sub { font-size: 12px; fill: #64748b; }
    .arr { stroke: #64748b; stroke-width: 1.5; }
    .lbl { font-size: 12px; fill: #94a3b8; }
  </style>
  <defs>
    <marker id="a" viewBox="0 0 10 10" refX="8" refY="5" markerWidth="6" markerHeight="6" orient="auto-start-reverse">
      <path d="M2 1L8 5L2 9" fill="none" stroke="context-stroke" stroke-width="1.5" stroke-linecap="round" stroke-linejoin="round"/>
    </marker>
  </defs>

  <!-- Start -->
  <rect x="220" y="20" width="240" height="42" rx="21" fill="#dbeafe" stroke="#2563eb" stroke-width="1"/>
  <text class="title" fill="#1e40af" x="340" y="45" text-anchor="middle">Select market + side (YES/NO)</text>
  <line x1="340" y1="62" x2="340" y2="92" class="arr" marker-end="url(#a)"/>

  <!-- Step 2 -->
  <rect x="200" y="92" width="280" height="52" rx="8" fill="#f8fafc" stroke="#e2e8f0" stroke-width="1"/>
  <text class="title" fill="#0f172a" x="340" y="113" text-anchor="middle">Enter USDC amount</text>
  <text class="sub" x="340" y="131" text-anchor="middle">Review price preview</text>
  <line x1="340" y1="144" x2="340" y2="174" class="arr" marker-end="url(#a)"/>

  <!-- Step 3 -->
  <rect x="200" y="174" width="280" height="52" rx="8" fill="#f5f3ff" stroke="#8b5cf6" stroke-width="1"/>
  <text class="title" fill="#5b21b6" x="340" y="195" text-anchor="middle">Router quote</text>
  <text class="sub" x="340" y="213" text-anchor="middle">CLOB check → AMM fallback</text>
  <line x1="340" y1="226" x2="340" y2="260" class="arr" marker-end="url(#a)"/>

  <!-- Diamond -->
  <polygon points="340,260 440,310 340,360 240,310" fill="#fef3c7" stroke="#d97706" stroke-width="1"/>
  <text class="title" fill="#92400e" x="340" y="314" text-anchor="middle">Slippage OK?</text>

  <!-- Yes -->
  <text class="lbl" x="225" y="300" text-anchor="end">Yes</text>
  <line x1="240" y1="310" x2="170" y2="310" class="arr" marker-end="url(#a)"/>
  <line x1="150" y1="310" x2="150" y2="400" class="arr" marker-end="url(#a)"/>

  <rect x="60" y="400" width="200" height="52" rx="8" fill="#f0fdfa" stroke="#0d9488" stroke-width="1"/>
  <text class="title" fill="#134e4a" x="160" y="421" text-anchor="middle">Execute swap</text>
  <text class="sub" x="160" y="439" text-anchor="middle">Single transaction</text>
  <line x1="160" y1="452" x2="160" y2="482" class="arr" marker-end="url(#a)"/>

  <rect x="60" y="482" width="200" height="42" rx="8" fill="#f0fdfa" stroke="#0d9488" stroke-width="1"/>
  <text class="title" fill="#134e4a" x="160" y="507" text-anchor="middle">Receive outcome tokens</text>
  <line x1="260" y1="503" x2="330" y2="503" class="arr" marker-end="url(#a)"/>

  <!-- End success -->
  <rect x="340" y="482" width="200" height="42" rx="21" fill="#dcfce7" stroke="#16a34a" stroke-width="1"/>
  <text class="title" fill="#15803d" x="440" y="507" text-anchor="middle">Trade complete</text>

  <!-- No -->
  <text class="lbl" x="455" y="300" text-anchor="start">No</text>
  <line x1="440" y1="310" x2="510" y2="310" class="arr" marker-end="url(#a)"/>
  <line x1="530" y1="310" x2="530" y2="390" class="arr" marker-end="url(#a)"/>

  <rect x="430" y="390" width="200" height="52" rx="21" fill="#fef2f2" stroke="#dc2626" stroke-width="1"/>
  <text class="title" fill="#991b1b" x="530" y="411" text-anchor="middle">Tx reverted</text>
  <text class="sub" x="530" y="429" text-anchor="middle">Funds safe, no loss</text>
</svg>
