<svg xmlns="http://www.w3.org/2000/svg" viewBox="0 0 740 560" font-family="Inter, system-ui, sans-serif">
  <rect x="0" y="0" width="740" height="560" rx="12" fill="#ffffff"/>
  <g transform="translate(30,30)">

  <style>
    .t { font-size: 14px; font-weight: 600; }
    .s { font-size: 12px; }
    .arr { stroke: #64748b; stroke-width: 1.5; }
    .lbl { font-size: 12px; fill: #94a3b8; }
  </style>
  <defs><marker id="a" viewBox="0 0 10 10" refX="8" refY="5" markerWidth="6" markerHeight="6" orient="auto-start-reverse"><path d="M2 1L8 5L2 9" fill="none" stroke="#64748b" stroke-width="1.5" stroke-linecap="round" stroke-linejoin="round"/></marker></defs>

  <rect x="250" y="20" width="180" height="52" rx="8" fill="#dbeafe" stroke="#2563eb" stroke-width="1"/>
  <text class="t" fill="#1e40af" x="340" y="40" text-anchor="middle">User</text>
  <text class="s" fill="#64748b" x="340" y="58" text-anchor="middle">Browser / wallet</text>

  <line x1="340" y1="72" x2="340" y2="112" class="arr" marker-end="url(#a)"/>
  <text class="lbl" x="355" y="96">HTTPS</text>

  <rect x="180" y="112" width="320" height="52" rx="8" fill="#f0fdfa" stroke="#0d9488" stroke-width="1"/>
  <text class="t" fill="#134e4a" x="340" y="132" text-anchor="middle">Frontend</text>
  <text class="s" fill="#64748b" x="340" y="150" text-anchor="middle">Next.js + React</text>

  <line x1="340" y1="164" x2="340" y2="204" class="arr" marker-end="url(#a)"/>
  <text class="lbl" x="355" y="188">REST</text>

  <rect x="180" y="204" width="320" height="52" rx="8" fill="#f5f3ff" stroke="#8b5cf6" stroke-width="1"/>
  <text class="t" fill="#5b21b6" x="340" y="224" text-anchor="middle">Backend</text>
  <text class="s" fill="#64748b" x="340" y="242" text-anchor="middle">NestJS + MongoDB</text>

  <line x1="340" y1="256" x2="340" y2="296" class="arr" marker-end="url(#a)"/>
  <text class="lbl" x="355" y="280">REST</text>

  <rect x="180" y="296" width="320" height="52" rx="8" fill="#fff7ed" stroke="#ea580c" stroke-width="1"/>
  <text class="t" fill="#9a3412" x="340" y="316" text-anchor="middle">Indexer</text>
  <text class="s" fill="#64748b" x="340" y="334" text-anchor="middle">Ponder + PostgreSQL</text>

  <line x1="340" y1="348" x2="340" y2="388" class="arr" marker-end="url(#a)"/>
  <text class="lbl" x="355" y="372">RPC</text>

  <rect x="180" y="388" width="320" height="52" rx="8" fill="#f8fafc" stroke="#cbd5e1" stroke-width="1"/>
  <text class="t" fill="#334155" x="340" y="408" text-anchor="middle">Smart contracts</text>
  <text class="s" fill="#64748b" x="340" y="426" text-anchor="middle">Solidity on Unichain</text>

  <!-- Direct tx path -->
  <path d="M430 46 L570 46 L570 414 L500 414" fill="none" stroke="#d97706" stroke-width="1.5" stroke-dasharray="6 4" marker-end="url(#a)"/>
  <text class="lbl" x="580" y="230" text-anchor="start" transform="rotate(90, 580, 230)">Direct tx</text>

  </g>
</svg>
