<svg xmlns="http://www.w3.org/2000/svg" viewBox="0 0 680 340" font-family="Inter, system-ui, sans-serif">
  <style>
    .t { font-size: 12px; font-weight: 600; fill: #0f172a; }
    .s { font-size: 11px; fill: #94a3b8; }
    .ax { font-size: 10px; fill: #94a3b8; }
    .grid { stroke: #e2e8f0; stroke-width: 0.5; }
    .cliff { fill: #cbd5e1; }
    .legend-t { font-size: 11px; fill: #64748b; }
  </style>

  <!-- Chart area: x=160..640, y=40..260 -->
  <!-- X axis labels (months) -->
  <text class="ax" x="160" y="278" text-anchor="middle">TGE</text>
  <text class="ax" x="213" y="278" text-anchor="middle">M6</text>
  <text class="ax" x="267" y="278" text-anchor="middle">M12</text>
  <text class="ax" x="320" y="278" text-anchor="middle">M18</text>
  <text class="ax" x="373" y="278" text-anchor="middle">M24</text>
  <text class="ax" x="427" y="278" text-anchor="middle">M30</text>
  <text class="ax" x="480" y="278" text-anchor="middle">M36</text>
  <text class="ax" x="533" y="278" text-anchor="middle">M42</text>
  <text class="ax" x="587" y="278" text-anchor="middle">M48</text>
  <text class="ax" x="640" y="278" text-anchor="middle">M54</text>

  <!-- Grid lines -->
  <line x1="160" y1="40" x2="160" y2="264" class="grid"/>
  <line x1="213" y1="40" x2="213" y2="264" class="grid"/>
  <line x1="267" y1="40" x2="267" y2="264" class="grid"/>
  <line x1="320" y1="40" x2="320" y2="264" class="grid"/>
  <line x1="373" y1="40" x2="373" y2="264" class="grid"/>
  <line x1="427" y1="40" x2="427" y2="264" class="grid"/>
  <line x1="480" y1="40" x2="480" y2="264" class="grid"/>
  <line x1="533" y1="40" x2="533" y2="264" class="grid"/>
  <line x1="587" y1="40" x2="587" y2="264" class="grid"/>
  <line x1="640" y1="40" x2="640" y2="264" class="grid"/>

  <!-- 1px = 480/54 = 8.89px per month -->
  <!-- Each row: 36px tall, 2px gap -->

  <!-- Community 30% — TGE 5%, vest 0-12mo -->
  <text class="t" x="150" y="62" text-anchor="end">Community 30%</text>
  <circle cx="160" cy="58" r="4" fill="#2563eb" stroke="#fff" stroke-width="1"/>
  <rect x="160" y="46" width="107" height="24" rx="4" fill="#2563eb"/>
  <text class="s" x="213" y="62" text-anchor="middle" fill="#fff">Vest</text>

  <!-- Investors 20% — 6mo cliff, vest 6-30mo -->
  <text class="t" x="150" y="100" text-anchor="end">Investors 20%</text>
  <rect x="160" y="84" width="53" height="24" rx="4" class="cliff"/>
  <rect x="213" y="84" width="214" height="24" rx="4" fill="#7c3aed"/>
  <text class="s" x="320" y="100" text-anchor="middle" fill="#fff">Vest</text>

  <!-- Team 18% — 12mo cliff, vest 12-48mo -->
  <text class="t" x="150" y="138" text-anchor="end">Team 18%</text>
  <rect x="160" y="122" width="107" height="24" rx="4" class="cliff"/>
  <rect x="267" y="122" width="320" height="24" rx="4" fill="#06b6d4"/>
  <text class="s" x="427" y="138" text-anchor="middle" fill="#fff">Vest</text>

  <!-- Treasury 17% — TGE 10%, vest 0-18mo -->
  <text class="t" x="150" y="176" text-anchor="end">Treasury 17%</text>
  <circle cx="160" cy="172" r="4" fill="#f59e0b" stroke="#fff" stroke-width="1"/>
  <rect x="160" y="160" width="160" height="24" rx="4" fill="#f59e0b"/>
  <text class="s" x="240" y="176" text-anchor="middle" fill="#fff">Vest</text>

  <!-- Marketing 10% — TGE 5%, vest 0-12mo -->
  <text class="t" x="150" y="214" text-anchor="end">Marketing 10%</text>
  <circle cx="160" cy="210" r="4" fill="#ec4899" stroke="#fff" stroke-width="1"/>
  <rect x="160" y="198" width="107" height="24" rx="4" fill="#ec4899"/>
  <text class="s" x="213" y="214" text-anchor="middle" fill="#fff">Vest</text>

  <!-- Liquidity 5% — 100% TGE -->
  <text class="t" x="150" y="252" text-anchor="end">Liquidity 5%</text>
  <circle cx="160" cy="248" r="4" fill="#22c55e" stroke="#fff" stroke-width="1"/>
  <rect x="160" y="240" width="18" height="16" rx="4" fill="#22c55e"/>
  <text class="s" x="186" y="252">100% TGE</text>

  <!-- Legend -->
  <rect x="160" y="300" width="30" height="10" rx="3" class="cliff"/>
  <text class="legend-t" x="196" y="310">Cliff (locked)</text>
  <rect x="310" y="300" width="30" height="10" rx="3" fill="#64748b"/>
  <text class="legend-t" x="346" y="310">Linear vesting</text>
  <circle cx="480" cy="305" r="4" fill="#64748b" stroke="#fff" stroke-width="1"/>
  <text class="legend-t" x="490" y="310">TGE unlock</text>
</svg>
