<svg xmlns="http://www.w3.org/2000/svg" viewBox="0 0 740 400" font-family="Inter, system-ui, sans-serif">
  <rect x="0" y="0" width="740" height="400" rx="12" fill="#ffffff"/>
  <g transform="translate(30,30)">

  <style>
    .t { font-size: 12px; font-weight: 600; fill: #0f172a; }
    .s { font-size: 11px; fill: #334155; }
    .ax { font-size: 10px; fill: #334155; font-weight: 500; }
    .grid { stroke: #e2e8f0; stroke-width: 0.5; }
    .cliff { fill: #94a3b8; }
    .legend-t { font-size: 11px; fill: #334155; }
  </style>

  <!-- Chart area: x=160..640, y=40..260 -->
  <!-- X axis labels (months) -->
  <text class="ax" x="160" y="278" text-anchor="middle">TGE</text>
  <text class="ax" x="213" y="278" text-anchor="middle">M6</text>
  <text class="ax" x="267" y="278" text-anchor="middle">M12</text>
  <text class="ax" x="320" y="278" text-anchor="middle">M18</text>
  <text class="ax" x="373" y="278" text-anchor="middle">M24</text>
  <text class="ax" x="427" y="278" text-anchor="middle">M30</text>
  <text class="ax" x="480" y="278" text-anchor="middle">M36</text>
  <text class="ax" x="533" y="278" text-anchor="middle">M42</text>
  <text class="ax" x="587" y="278" text-anchor="middle">M48</text>
  <text class="ax" x="640" y="278" text-anchor="middle">M54</text>

  <!-- Grid lines -->
  <line x1="160" y1="40" x2="160" y2="264" class="grid"/>
  <line x1="213" y1="40" x2="213" y2="264" class="grid"/>
  <line x1="267" y1="40" x2="267" y2="264" class="grid"/>
  <line x1="320" y1="40" x2="320" y2="264" class="grid"/>
  <line x1="373" y1="40" x2="373" y2="264" class="grid"/>
  <line x1="427" y1="40" x2="427" y2="264" class="grid"/>
  <line x1="480" y1="40" x2="480" y2="264" class="grid"/>
  <line x1="533" y1="40" x2="533" y2="264" class="grid"/>
  <line x1="587" y1="40" x2="587" y2="264" class="grid"/>
  <line x1="640" y1="40" x2="640" y2="264" class="grid"/>

  <!-- 1px = 480/54 = 8.89px per month -->
  <!-- Each row: 36px tall, 2px gap -->

  <!-- Community 30% — TGE 10%, 36mo season emission (TGE→M36) -->
  <text class="t" x="150" y="62" text-anchor="end">Community 30%</text>
  <circle cx="160" cy="58" r="4" fill="#2563eb" stroke="#fff" stroke-width="1"/>
  <rect x="160" y="46" width="320" height="24" rx="4" fill="#2563eb"/>
  <text x="320" y="62" text-anchor="middle" fill="#ffffff" font-size="11" font-weight="600">6 seasons (S1→S6)</text>

  <!-- Investors 20% — 6mo cliff + 24mo linear (M6→M30) -->
  <text class="t" x="150" y="100" text-anchor="end">Investors 20%</text>
  <rect x="160" y="84" width="53" height="24" rx="4" class="cliff"/>
  <rect x="213" y="84" width="214" height="24" rx="4" fill="#7c3aed"/>
  <text x="320" y="100" text-anchor="middle" fill="#ffffff" font-size="11" font-weight="600">24mo linear</text>

  <!-- Team 18% — 12mo cliff + 36mo linear (M12→M48) -->
  <text class="t" x="150" y="138" text-anchor="end">Team 18%</text>
  <rect x="160" y="122" width="107" height="24" rx="4" class="cliff"/>
  <rect x="267" y="122" width="320" height="24" rx="4" fill="#06b6d4"/>
  <text x="427" y="138" text-anchor="middle" fill="#0f172a" font-size="11" font-weight="600">36mo linear</text>

  <!-- Treasury 17% — 0% TGE, 6mo cliff + 48mo linear (M6→M54) -->
  <text class="t" x="150" y="176" text-anchor="end">Treasury 17%</text>
  <rect x="160" y="160" width="53" height="24" rx="4" class="cliff"/>
  <rect x="213" y="160" width="427" height="24" rx="4" fill="#f59e0b"/>
  <text x="427" y="176" text-anchor="middle" fill="#0f172a" font-size="11" font-weight="600">48mo linear</text>

  <!-- Marketing 10% — 3mo cliff + 24mo linear (M3→M27) -->
  <text class="t" x="150" y="214" text-anchor="end">Marketing 10%</text>
  <rect x="160" y="198" width="27" height="24" rx="4" class="cliff"/>
  <rect x="187" y="198" width="213" height="24" rx="4" fill="#ec4899"/>
  <text x="293" y="214" text-anchor="middle" fill="#ffffff" font-size="11" font-weight="600">24mo linear</text>

  <!-- Liquidity 5% — 100% TGE -->
  <text class="t" x="150" y="252" text-anchor="end">Liquidity 5%</text>
  <circle cx="160" cy="248" r="4" fill="#22c55e" stroke="#fff" stroke-width="1"/>
  <rect x="160" y="240" width="18" height="16" rx="4" fill="#22c55e"/>
  <text class="s" x="186" y="252">100% TGE</text>

  <!-- Legend -->
  <rect x="160" y="300" width="20" height="10" rx="3" fill="#94a3b8"/>
  <text class="legend-t" x="186" y="310">Cliff (locked)</text>

  <rect x="290" y="300" width="10" height="10" rx="2" fill="#2563eb"/>
  <rect x="302" y="300" width="10" height="10" rx="2" fill="#7c3aed"/>
  <rect x="314" y="300" width="10" height="10" rx="2" fill="#06b6d4"/>
  <rect x="326" y="300" width="10" height="10" rx="2" fill="#f59e0b"/>
  <rect x="338" y="300" width="10" height="10" rx="2" fill="#ec4899"/>
  <text class="legend-t" x="356" y="310">Linear vesting</text>

  <circle cx="473" cy="305" r="4" fill="#2563eb" stroke="#fff" stroke-width="1"/>
  <circle cx="485" cy="305" r="4" fill="#22c55e" stroke="#fff" stroke-width="1"/>
  <text class="legend-t" x="496" y="310">TGE unlock</text>

  </g>
</svg>
