<svg xmlns="http://www.w3.org/2000/svg" viewBox="0 0 740 580" font-family="Inter, system-ui, sans-serif">
  <rect x="0" y="0" width="740" height="580" rx="12" fill="#ffffff"/>
  <g transform="translate(30,30)">

  <style>
    .t { font-size: 14px; font-weight: 600; }
    .s { font-size: 12px; }
    .arr { stroke: #64748b; stroke-width: 1.5; }
  </style>
  <defs><marker id="a" viewBox="0 0 10 10" refX="8" refY="5" markerWidth="6" markerHeight="6" orient="auto-start-reverse"><path d="M2 1L8 5L2 9" fill="none" stroke="#64748b" stroke-width="1.5" stroke-linecap="round" stroke-linejoin="round"/></marker></defs>

  <rect x="220" y="20" width="240" height="42" rx="21" fill="#dbeafe" stroke="#2563eb" stroke-width="1"/>
  <text class="t" fill="#1e40af" x="340" y="45" text-anchor="middle">Connect wallet</text>
  <line x1="340" y1="62" x2="340" y2="98" class="arr" marker-end="url(#a)"/>

  <rect x="200" y="98" width="280" height="52" rx="8" fill="#f8fafc" stroke="#e2e8f0" stroke-width="1"/>
  <text class="t" fill="#0f172a" x="340" y="118" text-anchor="middle">Bridge USDC to Unichain</text>
  <text class="s" fill="#64748b" x="340" y="136" text-anchor="middle">Superbridge / Relay</text>
  <line x1="340" y1="150" x2="340" y2="186" class="arr" marker-end="url(#a)"/>

  <rect x="200" y="186" width="280" height="52" rx="8" fill="#f8fafc" stroke="#e2e8f0" stroke-width="1"/>
  <text class="t" fill="#0f172a" x="340" y="206" text-anchor="middle">Pick a market</text>
  <text class="s" fill="#64748b" x="340" y="224" text-anchor="middle">Browse or search categories</text>
  <line x1="340" y1="238" x2="340" y2="274" class="arr" marker-end="url(#a)"/>

  <rect x="200" y="274" width="280" height="52" rx="8" fill="#f5f3ff" stroke="#8b5cf6" stroke-width="1"/>
  <text class="t" fill="#5b21b6" x="340" y="294" text-anchor="middle">Buy YES or NO</text>
  <text class="s" fill="#64748b" x="340" y="312" text-anchor="middle">Enter amount → confirm tx</text>
  <line x1="340" y1="326" x2="340" y2="362" class="arr" marker-end="url(#a)"/>

  <rect x="200" y="362" width="280" height="52" rx="8" fill="#f0fdfa" stroke="#0d9488" stroke-width="1"/>
  <text class="t" fill="#134e4a" x="340" y="382" text-anchor="middle">Receive outcome tokens</text>
  <text class="s" fill="#64748b" x="340" y="400" text-anchor="middle">Visible in portfolio</text>
  <line x1="340" y1="414" x2="340" y2="450" class="arr" marker-end="url(#a)"/>

  <rect x="220" y="450" width="240" height="42" rx="21" fill="#dcfce7" stroke="#16a34a" stroke-width="1"/>
  <text class="t" fill="#15803d" x="340" y="475" text-anchor="middle">First trade complete!</text>

  </g>
</svg>
