<svg xmlns="http://www.w3.org/2000/svg" viewBox="0 0 740 520" font-family="Inter, system-ui, sans-serif">
  <rect x="0" y="0" width="740" height="520" rx="12" fill="#ffffff"/>
  <g transform="translate(30,30)">

  <style>
    .t { font-size: 14px; font-weight: 600; }
    .s { font-size: 12px; }
    .arr { stroke: #64748b; stroke-width: 1.5; }
    .lbl { font-size: 11px; fill: #94a3b8; }
  </style>
  <defs><marker id="a" viewBox="0 0 10 10" refX="8" refY="5" markerWidth="6" markerHeight="6" orient="auto-start-reverse"><path d="M2 1L8 5L2 9" fill="none" stroke="#64748b" stroke-width="1.5" stroke-linecap="round" stroke-linejoin="round"/></marker></defs>

  <rect x="220" y="20" width="240" height="42" rx="21" fill="#dbeafe" stroke="#2563eb" stroke-width="1"/>
  <text class="t" fill="#1e40af" x="340" y="45" text-anchor="middle">Choose connect method</text>
  <line x1="340" y1="62" x2="340" y2="100" class="arr" marker-end="url(#a)"/>

  <!-- Decision -->
  <polygon points="340,100 440,150 340,200 240,150" fill="#fef3c7" stroke="#d97706" stroke-width="1"/>
  <text class="t" fill="#92400e" x="340" y="154" text-anchor="middle">Method?</text>

  <!-- Passkey branch (left) -->
  <text class="lbl" x="225" y="140" text-anchor="end">Passkey</text>
  <line x1="240" y1="150" x2="130" y2="150" class="arr" marker-end="url(#a)"/>
  <line x1="110" y1="150" x2="110" y2="250" class="arr" marker-end="url(#a)"/>

  <rect x="40" y="250" width="180" height="52" rx="8" fill="#f0fdfa" stroke="#0d9488" stroke-width="1"/>
  <text class="t" fill="#134e4a" x="130" y="270" text-anchor="middle">Biometric scan</text>
  <text class="s" fill="#64748b" x="130" y="288" text-anchor="middle">Face ID / fingerprint</text>

  <!-- MetaMask branch (right) -->
  <text class="lbl" x="455" y="140" text-anchor="start">MetaMask</text>
  <line x1="440" y1="150" x2="530" y2="150" class="arr" marker-end="url(#a)"/>
  <line x1="550" y1="150" x2="550" y2="250" class="arr" marker-end="url(#a)"/>

  <rect x="460" y="250" width="180" height="52" rx="8" fill="#f5f3ff" stroke="#8b5cf6" stroke-width="1"/>
  <text class="t" fill="#5b21b6" x="550" y="270" text-anchor="middle">Sign message</text>
  <text class="s" fill="#64748b" x="550" y="288" text-anchor="middle">Approve in extension</text>

  <!-- Converge -->
  <line x1="130" y1="302" x2="130" y2="340" class="arr"/>
  <line x1="550" y1="302" x2="550" y2="340" class="arr"/>
  <line x1="130" y1="340" x2="550" y2="340" stroke="#64748b" stroke-width="1.5"/>
  <line x1="340" y1="340" x2="340" y2="380" class="arr" marker-end="url(#a)"/>

  <rect x="220" y="380" width="240" height="42" rx="21" fill="#dcfce7" stroke="#16a34a" stroke-width="1"/>
  <text class="t" fill="#15803d" x="340" y="405" text-anchor="middle">Wallet connected</text>

  </g>
</svg>
