<svg xmlns="http://www.w3.org/2000/svg" viewBox="0 0 900 420" font-family="Inter, system-ui, sans-serif">
  <rect x="0" y="0" width="900" height="420" rx="12" fill="#ffffff"/>

  <style>
    .center { font-size: 18px; font-weight: 700; fill: #1e40af; }
    .l1 { font-size: 14px; font-weight: 600; }
    .l2 { font-size: 11px; font-weight: 500; fill: #334155; }
    .branch { fill: none; stroke-width: 2; stroke-linecap: round; }
    .twig { fill: none; stroke-width: 1.2; stroke-linecap: round; }
    .leaf { fill: #f1f5f9; stroke: #e2e8f0; stroke-width: 1; }
  </style>

  <!-- Center -->
  <rect x="350" y="170" width="200" height="48" rx="24" fill="#dbeafe" stroke="#2563eb" stroke-width="2"/>
  <text class="center" x="450" y="200" text-anchor="middle">Core concepts</text>

  <!-- Market (top-left) -->
  <path class="branch" stroke="#2563eb" d="M350 178 C310 155, 250 135, 200 115"/>
  <rect x="130" y="92" width="130" height="36" rx="8" fill="#dbeafe" stroke="#2563eb" stroke-width="1.5"/>
  <text class="l1" fill="#1e40af" x="195" y="115" text-anchor="middle">Market</text>
  <path class="twig" stroke="#93c5fd" d="M155 92 Q135 68, 115 54"/>
  <rect x="40" y="36" width="116" height="26" rx="6" class="leaf"/><text class="l2" x="98" y="54" text-anchor="middle">Binary outcome</text>
  <path class="twig" stroke="#93c5fd" d="M230 92 Q250 68, 270 54"/>
  <rect x="218" y="36" width="116" height="26" rx="6" class="leaf"/><text class="l2" x="276" y="54" text-anchor="middle">Time-bounded</text>

  <!-- Token (top-center) -->
  <path class="branch" stroke="#8b5cf6" d="M450 170 Q450 128, 450 108"/>
  <rect x="385" y="72" width="130" height="36" rx="8" fill="#f5f3ff" stroke="#8b5cf6" stroke-width="1.5"/>
  <text class="l1" fill="#5b21b6" x="450" y="95" text-anchor="middle">Token</text>
  <path class="twig" stroke="#c4b5fd" d="M410 72 Q390 48, 368 34"/>
  <rect x="298" y="16" width="120" height="26" rx="6" class="leaf"/><text class="l2" x="358" y="34" text-anchor="middle">ERC-20 YES / NO</text>
  <path class="twig" stroke="#c4b5fd" d="M490 72 Q510 48, 532 34"/>
  <rect x="494" y="16" width="82" height="26" rx="6" class="leaf"/><text class="l2" x="535" y="34" text-anchor="middle">6 decimals</text>

  <!-- Trading (top-right) -->
  <path class="branch" stroke="#0d9488" d="M550 178 C590 155, 650 135, 700 115"/>
  <rect x="640" y="92" width="130" height="36" rx="8" fill="#f0fdfa" stroke="#0d9488" stroke-width="1.5"/>
  <text class="l1" fill="#134e4a" x="705" y="115" text-anchor="middle">Trading</text>
  <path class="twig" stroke="#5eead4" d="M665 92 Q645 68, 625 54"/>
  <rect x="560" y="36" width="116" height="26" rx="6" class="leaf"/><text class="l2" x="618" y="54" text-anchor="middle">CLOB + AMM</text>
  <path class="twig" stroke="#5eead4" d="M745 92 Q765 68, 785 54"/>
  <rect x="730" y="36" width="116" height="26" rx="6" class="leaf"/><text class="l2" x="788" y="54" text-anchor="middle">Single-tx swap</text>

  <!-- Resolution (bottom-left) -->
  <path class="branch" stroke="#d97706" d="M350 212 C310 235, 250 255, 200 278"/>
  <rect x="130" y="270" width="140" height="36" rx="8" fill="#fef3c7" stroke="#d97706" stroke-width="1.5"/>
  <text class="l1" fill="#92400e" x="200" y="293" text-anchor="middle">Resolution</text>
  <path class="twig" stroke="#fbbf24" d="M155 306 Q135 330, 115 344"/>
  <rect x="40" y="336" width="108" height="26" rx="6" class="leaf"/><text class="l2" x="94" y="354" text-anchor="middle">Oracle-driven</text>
  <path class="twig" stroke="#fbbf24" d="M235 306 Q260 330, 285 344"/>
  <rect x="230" y="336" width="116" height="26" rx="6" class="leaf"/><text class="l2" x="288" y="354" text-anchor="middle">Dispute window</text>

  <!-- Fee (bottom-right) -->
  <path class="branch" stroke="#dc2626" d="M550 212 C590 235, 650 255, 700 278"/>
  <rect x="645" y="270" width="110" height="36" rx="8" fill="#fef2f2" stroke="#dc2626" stroke-width="1.5"/>
  <text class="l1" fill="#991b1b" x="700" y="293" text-anchor="middle">Fee</text>
  <path class="twig" stroke="#fca5a5" d="M670 306 Q645 330, 618 344"/>
  <rect x="546" y="336" width="144" height="26" rx="6" class="leaf"/><text class="l2" x="618" y="354" text-anchor="middle">Dynamic near expiry</text>
  <path class="twig" stroke="#fca5a5" d="M735 306 Q760 330, 783 344"/>
  <rect x="730" y="336" width="108" height="26" rx="6" class="leaf"/><text class="l2" x="784" y="354" text-anchor="middle">Split to stakers</text>

</svg>
