<svg xmlns="http://www.w3.org/2000/svg" viewBox="0 0 900 420" font-family="Inter, system-ui, sans-serif">
  <rect x="0" y="0" width="900" height="420" rx="12" fill="#ffffff"/>

  <style>
    .center { font-size: 18px; font-weight: 700; fill: #5b21b6; }
    .l1 { font-size: 14px; font-weight: 600; }
    .l2 { font-size: 11px; font-weight: 500; fill: #334155; }
    .branch { fill: none; stroke-width: 2; stroke-linecap: round; }
    .twig { fill: none; stroke-width: 1.2; stroke-linecap: round; }
    .leaf { fill: #f1f5f9; stroke: #e2e8f0; stroke-width: 1; }
  </style>

  <!-- Center -->
  <rect x="350" y="170" width="200" height="48" rx="24" fill="#f5f3ff" stroke="#8b5cf6" stroke-width="2"/>
  <text class="center" x="450" y="200" text-anchor="middle">vePRX rights</text>

  <!-- Gauge (top-left) -->
  <path class="branch" stroke="#2563eb" d="M370 178 C310 155, 250 135, 200 115"/>
  <rect x="130" y="92" width="130" height="36" rx="8" fill="#dbeafe" stroke="#2563eb" stroke-width="1.5"/>
  <text class="l1" fill="#1e40af" x="195" y="115" text-anchor="middle">Gauge</text>
  <path class="twig" stroke="#93c5fd" d="M155 92 Q135 68, 115 54"/>
  <rect x="40" y="36" width="108" height="26" rx="6" class="leaf"/><text class="l2" x="94" y="54" text-anchor="middle">Direct subsidy</text>
  <path class="twig" stroke="#93c5fd" d="M230 92 Q250 68, 270 54"/>
  <rect x="224" y="36" width="96" height="26" rx="6" class="leaf"/><text class="l2" x="272" y="54" text-anchor="middle">Earn bribes</text>

  <!-- Params (top-right) -->
  <path class="branch" stroke="#0d9488" d="M530 178 C590 155, 650 135, 700 115"/>
  <rect x="640" y="92" width="130" height="36" rx="8" fill="#f0fdfa" stroke="#0d9488" stroke-width="1.5"/>
  <text class="l1" fill="#134e4a" x="705" y="115" text-anchor="middle">Params</text>
  <path class="twig" stroke="#5eead4" d="M670 92 Q650 68, 630 54"/>
  <rect x="580" y="36" width="96" height="26" rx="6" class="leaf"/><text class="l2" x="628" y="54" text-anchor="middle">Fee tiers</text>
  <path class="twig" stroke="#5eead4" d="M740 92 Q760 68, 780 54"/>
  <rect x="738" y="36" width="80" height="26" rx="6" class="leaf"/><text class="l2" x="778" y="54" text-anchor="middle">Burn rate</text>

  <!-- Treasury (bottom-left) -->
  <path class="branch" stroke="#d97706" d="M370 212 C290 245, 200 270, 150 290"/>
  <rect x="70" y="282" width="140" height="36" rx="8" fill="#fef3c7" stroke="#d97706" stroke-width="1.5"/>
  <text class="l1" fill="#92400e" x="140" y="305" text-anchor="middle">Treasury</text>
  <path class="twig" stroke="#fbbf24" d="M95 318 Q70 342, 50 356"/>
  <rect x="10" y="348" width="108" height="26" rx="6" class="leaf"/><text class="l2" x="64" y="366" text-anchor="middle">Spending votes</text>
  <path class="twig" stroke="#fbbf24" d="M185 318 Q210 342, 238 356"/>
  <rect x="180" y="348" width="120" height="26" rx="6" class="leaf"/><text class="l2" x="240" y="366" text-anchor="middle">Grant allocation</text>

  <!-- Phase (bottom-center) -->
  <path class="branch" stroke="#dc2626" d="M450 218 Q450 260, 450 278"/>
  <rect x="385" y="274" width="130" height="36" rx="8" fill="#fef2f2" stroke="#dc2626" stroke-width="1.5"/>
  <text class="l1" fill="#991b1b" x="450" y="297" text-anchor="middle">Phase</text>
  <path class="twig" stroke="#fca5a5" d="M410 310 Q380 334, 350 348"/>
  <rect x="290" y="340" width="120" height="26" rx="6" class="leaf"/><text class="l2" x="350" y="358" text-anchor="middle">Transition vote</text>
  <path class="twig" stroke="#fca5a5" d="M490 310 Q520 334, 550 348"/>
  <rect x="498" y="340" width="120" height="26" rx="6" class="leaf"/><text class="l2" x="558" y="358" text-anchor="middle">Milestone gates</text>

  <!-- Emergency (bottom-right) -->
  <path class="branch" stroke="#8b5cf6" d="M530 212 C610 245, 700 270, 750 290"/>
  <rect x="680" y="282" width="140" height="36" rx="8" fill="#f5f3ff" stroke="#8b5cf6" stroke-width="1.5"/>
  <text class="l1" fill="#5b21b6" x="750" y="305" text-anchor="middle">Emergency</text>
  <path class="twig" stroke="#c4b5fd" d="M710 318 Q685 342, 660 356"/>
  <rect x="602" y="348" width="116" height="26" rx="6" class="leaf"/><text class="l2" x="660" y="366" text-anchor="middle">Pause protocol</text>
  <path class="twig" stroke="#c4b5fd" d="M790 318 Q810 342, 830 356"/>
  <rect x="794" y="348" width="72" height="26" rx="6" class="leaf"/><text class="l2" x="830" y="366" text-anchor="middle">Refund</text>

</svg>
