<svg xmlns="http://www.w3.org/2000/svg" viewBox="0 0 640 320" font-family="Inter, system-ui, sans-serif">
  <rect x="0" y="0" width="640" height="320" rx="12" fill="#ffffff"/>

  <!-- Donut chart using path arcs — center (180, 150), r=90, stroke-width 36 -->
  <!-- Approximate equal segments for "range" display: Treasury 35%, Staker 25%, Buyback 30%, Insurance 10% -->
  <!-- circumference = 2π×90 = 565.5 -->

  <!-- Treasury 35% = 197.9 -->
  <circle cx="180" cy="150" r="90" fill="none" stroke="#f59e0b" stroke-width="36"
    stroke-dasharray="197.9 367.6" stroke-dashoffset="141.4" transform="rotate(-90 180 150)"/>

  <!-- Staker yield 25% = 141.4 -->
  <circle cx="180" cy="150" r="90" fill="none" stroke="#2563eb" stroke-width="36"
    stroke-dasharray="141.4 424.1" stroke-dashoffset="-56.5" transform="rotate(-90 180 150)"/>

  <!-- Buyback-burn 30% = 169.6 -->
  <circle cx="180" cy="150" r="90" fill="none" stroke="#dc2626" stroke-width="36"
    stroke-dasharray="169.6 395.9" stroke-dashoffset="-197.9" transform="rotate(-90 180 150)"/>

  <!-- Insurance 10% = 56.5 -->
  <circle cx="180" cy="150" r="90" fill="none" stroke="#22c55e" stroke-width="36"
    stroke-dasharray="56.5 509" stroke-dashoffset="-367.6" transform="rotate(-90 180 150)"/>

  <!-- Center text -->
  <text x="180" y="145" text-anchor="middle" font-size="16" font-weight="700" fill="#0f172a">Protocol</text>
  <text x="180" y="165" text-anchor="middle" font-size="12" fill="#64748b">fee split</text>

  <!-- Legend (right side) -->
  <rect x="340" y="80" width="14" height="14" rx="3" fill="#f59e0b"/>
  <text x="362" y="93" font-size="14" font-weight="600" fill="#0f172a">Treasury</text>
  <text x="470" y="93" font-size="13" fill="#64748b">15–60%</text>

  <rect x="340" y="114" width="14" height="14" rx="3" fill="#2563eb"/>
  <text x="362" y="127" font-size="14" font-weight="600" fill="#0f172a">Staker yield</text>
  <text x="470" y="127" font-size="13" fill="#64748b">20–35%</text>

  <rect x="340" y="148" width="14" height="14" rx="3" fill="#dc2626"/>
  <text x="362" y="161" font-size="14" font-weight="600" fill="#0f172a">Buyback-burn</text>
  <text x="470" y="161" font-size="13" fill="#64748b">15–50%</text>

  <rect x="340" y="182" width="14" height="14" rx="3" fill="#22c55e"/>
  <text x="362" y="195" font-size="14" font-weight="600" fill="#0f172a">Insurance</text>
  <text x="470" y="195" font-size="13" fill="#64748b">5%</text>

  <!-- Subtitle -->
  <text x="320" y="280" text-anchor="middle" font-size="11" fill="#94a3b8">Phase-dependent: Bootstrap → Scale → Mature → Dominance</text>
</svg>
