<svg xmlns="http://www.w3.org/2000/svg" viewBox="0 0 640 300" font-family="Inter, system-ui, sans-serif">
  <rect x="0" y="0" width="640" height="300" rx="12" fill="#ffffff"/>
  <g transform="translate(40,40)">
    <defs><marker id="a" viewBox="0 0 10 10" refX="8" refY="5" markerWidth="6" markerHeight="6" orient="auto-start-reverse"><path d="M2 1L8 5L2 9" fill="none" stroke="context-stroke" stroke-width="1.5" stroke-linecap="round" stroke-linejoin="round"/></marker></defs>
        <rect x="0" y="0" width="120" height="44" rx="8" fill="#dcfce7" stroke="#16a34a" stroke-width="1"/>
    <text x="60" y="18" text-anchor="middle" dominant-baseline="central" font-size="15" font-weight="600" fill="#15803d">Maker</text>
        <line x1="120" y1="22" x2="170" y2="22" stroke="#64748b" stroke-width="1.5" marker-end="url(#a)"/>
    <rect x="180" y="2" width="160" height="38" rx="19" fill="#dcfce7" stroke="#16a34a" stroke-width="1"/>
    <text x="260" y="24" text-anchor="middle" dominant-baseline="central" font-size="14" font-weight="600" fill="#15803d">0% fee always</text>

        <rect x="0" y="74" width="120" height="44" rx="8" fill="#f8fafc" stroke="#cbd5e1" stroke-width="1"/>
    <text x="60" y="92" text-anchor="middle" dominant-baseline="central" font-size="15" font-weight="600" fill="#334155">Taker</text>
        <line x1="120" y1="96" x2="170" y2="96" stroke="#64748b" stroke-width="1.5" marker-end="url(#a)"/>

    <polygon points="240,68 310,96 240,124 170,96" fill="#fef3c7" stroke="#d97706" stroke-width="1"/>
    <text x="240" y="96" text-anchor="middle" dominant-baseline="central" font-size="13" font-weight="600" fill="#92400e">Time to end?</text>

        <line x1="310" y1="78" x2="360" y2="78" stroke="#64748b" stroke-width="1.5" marker-end="url(#a)"/>
    <rect x="370" y="60" width="170" height="36" rx="8" fill="#dcfce7" stroke="#16a34a" stroke-width="1"/>
    <text x="455" y="78" text-anchor="middle" dominant-baseline="central" font-size="13" font-weight="600" fill="#15803d">&gt; 7 days: 0%</text>

        <line x1="310" y1="96" x2="360" y2="96" stroke="#64748b" stroke-width="1.5" marker-end="url(#a)"/>
    <rect x="370" y="96" width="170" height="36" rx="8" fill="#f8fafc" stroke="#cbd5e1" stroke-width="1"/>
    <text x="455" y="114" text-anchor="middle" dominant-baseline="central" font-size="13" font-weight="600" fill="#334155">3–7 days: 0.5%</text>

    <line x1="290" y1="120" x2="290" y2="150" stroke="#64748b" stroke-width="1.5"/>
        <line x1="290" y1="150" x2="360" y2="150" stroke="#64748b" stroke-width="1.5" marker-end="url(#a)"/>
    <rect x="370" y="132" width="170" height="36" rx="8" fill="#f8fafc" stroke="#cbd5e1" stroke-width="1"/>
    <text x="455" y="150" text-anchor="middle" dominant-baseline="central" font-size="13" font-weight="600" fill="#334155">1–3 days: 0.75%</text>

    <line x1="270" y1="120" x2="270" y2="186" stroke="#64748b" stroke-width="1.5"/>
        <line x1="270" y1="186" x2="360" y2="186" stroke="#64748b" stroke-width="1.5" marker-end="url(#a)"/>
    <rect x="370" y="168" width="170" height="36" rx="8" fill="#fef2f2" stroke="#dc2626" stroke-width="1"/>
    <text x="455" y="186" text-anchor="middle" dominant-baseline="central" font-size="13" font-weight="600" fill="#991b1b">&lt; 24h: 1.0% cap</text>
  </g>
</svg>