<svg xmlns="http://www.w3.org/2000/svg" viewBox="0 0 740 280" font-family="Inter, system-ui, sans-serif">
  <rect x="0" y="0" width="740" height="280" rx="12" fill="#ffffff"/>
  <g transform="translate(40,40)">
    <defs><marker id="a" viewBox="0 0 10 10" refX="8" refY="5" markerWidth="6" markerHeight="6" orient="auto-start-reverse"><path d="M2 1L8 5L2 9" fill="none" stroke="context-stroke" stroke-width="1.5" stroke-linecap="round" stroke-linejoin="round"/></marker></defs>
        <rect x="0" y="60" width="160" height="56" rx="8" fill="#f8fafc" stroke="#cbd5e1" stroke-width="1"/>
    <text x="80" y="78" text-anchor="middle" dominant-baseline="central" font-size="15" font-weight="600" fill="#334155">Protocol fee</text>
    <text x="80" y="98" text-anchor="middle" dominant-baseline="central" font-size="13" fill="#64748b">All sources</text>
        <line x1="160" y1="88" x2="210" y2="88" stroke="#64748b" stroke-width="1.5" marker-end="url(#a)"/>
        <rect x="220" y="60" width="160" height="56" rx="8" fill="#f5f3ff" stroke="#8b5cf6" stroke-width="1"/>
    <text x="300" y="78" text-anchor="middle" dominant-baseline="central" font-size="15" font-weight="600" fill="#5b21b6">Adaptive split</text>
    <text x="300" y="98" text-anchor="middle" dominant-baseline="central" font-size="13" fill="#64748b">Phase-based</text>

        <line x1="380" y1="20" x2="430" y2="20" stroke="#64748b" stroke-width="1.5" marker-end="url(#a)"/>
        <rect x="440" y="0" width="200" height="56" rx="8" fill="#fef3c7" stroke="#d97706" stroke-width="1"/>
    <text x="540" y="18" text-anchor="middle" dominant-baseline="central" font-size="15" font-weight="600" fill="#92400e">Treasury</text>
    <text x="540" y="38" text-anchor="middle" dominant-baseline="central" font-size="13" fill="#64748b">15–60%</text>

        <line x1="380" y1="65" x2="430" y2="65" stroke="#64748b" stroke-width="1.5" marker-end="url(#a)"/>
        <rect x="440" y="44" width="200" height="56" rx="8" fill="#dbeafe" stroke="#2563eb" stroke-width="1"/>
    <text x="540" y="62" text-anchor="middle" dominant-baseline="central" font-size="15" font-weight="600" fill="#1e40af">Staker yield</text>
    <text x="540" y="82" text-anchor="middle" dominant-baseline="central" font-size="13" fill="#64748b">20–35% USDC</text>

        <line x1="380" y1="110" x2="430" y2="110" stroke="#64748b" stroke-width="1.5" marker-end="url(#a)"/>
        <rect x="440" y="88" width="200" height="56" rx="8" fill="#fef2f2" stroke="#dc2626" stroke-width="1"/>
    <text x="540" y="106" text-anchor="middle" dominant-baseline="central" font-size="15" font-weight="600" fill="#991b1b">Buyback-burn</text>
    <text x="540" y="126" text-anchor="middle" dominant-baseline="central" font-size="13" fill="#64748b">15–50% PRX</text>

        <line x1="380" y1="154" x2="430" y2="154" stroke="#64748b" stroke-width="1.5" marker-end="url(#a)"/>
        <rect x="440" y="132" width="200" height="56" rx="8" fill="#dcfce7" stroke="#16a34a" stroke-width="1"/>
    <text x="540" y="150" text-anchor="middle" dominant-baseline="central" font-size="15" font-weight="600" fill="#15803d">Insurance fund</text>
    <text x="540" y="170" text-anchor="middle" dominant-baseline="central" font-size="13" fill="#64748b">5% fixed</text>

    <line x1="380" y1="88" x2="380" y2="20" stroke="#64748b" stroke-width="1.5"/>
    <line x1="380" y1="88" x2="380" y2="154" stroke="#64748b" stroke-width="1.5"/>
  </g>
</svg>