<svg xmlns="http://www.w3.org/2000/svg" viewBox="0 0 640 260" font-family="Inter, system-ui, sans-serif">
  <rect x="0" y="0" width="640" height="260" rx="12" fill="#ffffff"/>
  <g transform="translate(40,40)">
    <defs><marker id="a" viewBox="0 0 10 10" refX="8" refY="5" markerWidth="6" markerHeight="6" orient="auto-start-reverse"><path d="M2 1L8 5L2 9" fill="none" stroke="context-stroke" stroke-width="1.5" stroke-linecap="round" stroke-linejoin="round"/></marker></defs>
    <polygon points="280,0 380,40 280,80 180,40" fill="#fef3c7" stroke="#d97706" stroke-width="1"/>
    <text x="280" y="40" text-anchor="middle" dominant-baseline="central" font-size="14" font-weight="600" fill="#92400e">Event type?</text>

        <line x1="120" y1="55" x2="120" y2="110" stroke="#64748b" stroke-width="1.5" marker-end="url(#a)"/>
        <rect x="20" y="110" width="200" height="56" rx="8" fill="#dcfce7" stroke="#16a34a" stroke-width="1"/>
    <text x="120" y="128" text-anchor="middle" dominant-baseline="central" font-size="15" font-weight="600" fill="#15803d">ChainlinkOracle</text>
    <text x="120" y="148" text-anchor="middle" dominant-baseline="central" font-size="13" fill="#64748b">Price feed, auto</text>
    <text x="120" y="98" text-anchor="middle" font-size="12" fill="#64748b">Price threshold</text>

        <line x1="280" y1="80" x2="280" y2="200" stroke="#64748b" stroke-width="1.5" marker-end="url(#a)"/>
    <line x1="280" y1="200" x2="120" y2="200" stroke="#64748b" stroke-width="1.5"/>
    <line x1="280" y1="200" x2="440" y2="200" stroke="#64748b" stroke-width="1.5"/>

        <line x1="280" y1="80" x2="280" y2="110" stroke="#64748b" stroke-width="1.5" marker-end="url(#a)"/>
        <rect x="180" y="110" width="200" height="56" rx="8" fill="#dbeafe" stroke="#2563eb" stroke-width="1"/>
    <text x="280" y="128" text-anchor="middle" dominant-baseline="central" font-size="15" font-weight="600" fill="#1e40af">ManualOracle</text>
    <text x="280" y="148" text-anchor="middle" dominant-baseline="central" font-size="13" fill="#64748b">Multisig 3/5</text>
    <text x="280" y="98" text-anchor="middle" font-size="12" fill="#64748b">Subjective event</text>

        <line x1="440" y1="55" x2="440" y2="110" stroke="#64748b" stroke-width="1.5" marker-end="url(#a)"/>
        <rect x="340" y="110" width="200" height="56" rx="8" fill="#f8fafc" stroke="#cbd5e1" stroke-width="1"/>
    <text x="440" y="128" text-anchor="middle" dominant-baseline="central" font-size="15" font-weight="600" fill="#334155">UMAOracle</text>
    <text x="440" y="148" text-anchor="middle" dominant-baseline="central" font-size="13" fill="#64748b">48h dispute, Phase 2</text>
    <text x="440" y="98" text-anchor="middle" font-size="12" fill="#64748b">Decentralized</text>
  </g>
</svg>