<svg xmlns="http://www.w3.org/2000/svg" viewBox="0 0 420 612" font-family="Inter, system-ui, sans-serif">
  <rect x="0" y="0" width="420" height="612" rx="12" fill="#ffffff"/>
  <g transform="translate(40,40)">
    <defs><marker id="a" viewBox="0 0 10 10" refX="8" refY="5" markerWidth="6" markerHeight="6" orient="auto-start-reverse"><path d="M2 1L8 5L2 9" fill="none" stroke="context-stroke" stroke-width="1.5" stroke-linecap="round" stroke-linejoin="round"/></marker></defs>
    <rect x="31" y="0" width="278" height="42" rx="21" fill="#dbeafe" stroke="#2563eb" stroke-width="1"/>
    <text x="170" y="21" text-anchor="middle" dominant-baseline="central" font-size="15" font-weight="600" fill="#1e40af">Register oracle</text>
    <line x1="170" y1="42" x2="170" y2="72" stroke="#64748b" stroke-width="1.5" marker-end="url(#a)"/>
    <rect x="31" y="72" width="278" height="56" rx="8" fill="#f8fafc" stroke="#cbd5e1" stroke-width="1"/>
    <text x="170" y="90" text-anchor="middle" dominant-baseline="central" font-size="15" font-weight="600" fill="#334155">Set feed + threshold</text>
    <text x="170" y="110" text-anchor="middle" dominant-baseline="central" font-size="13" fill="#64748b">BTC/USD, $100k, snapshotAt</text>
    <line x1="170" y1="128" x2="170" y2="158" stroke="#64748b" stroke-width="1.5" marker-end="url(#a)"/>
    <rect x="31" y="158" width="278" height="44" rx="8" fill="#fef3c7" stroke="#d97706" stroke-width="1"/>
    <text x="170" y="176" text-anchor="middle" dominant-baseline="central" font-size="15" font-weight="600" fill="#92400e">...endTime passes...</text>
    <line x1="170" y1="202" x2="170" y2="232" stroke="#64748b" stroke-width="1.5" marker-end="url(#a)"/>
    <rect x="31" y="232" width="278" height="56" rx="8" fill="#dbeafe" stroke="#2563eb" stroke-width="1"/>
    <text x="170" y="250" text-anchor="middle" dominant-baseline="central" font-size="15" font-weight="600" fill="#1e40af">Anyone calls resolve()</text>
    <text x="170" y="270" text-anchor="middle" dominant-baseline="central" font-size="13" fill="#64748b">marketId + roundIdHint</text>
    <line x1="170" y1="288" x2="170" y2="318" stroke="#64748b" stroke-width="1.5" marker-end="url(#a)"/>
    <rect x="31" y="318" width="278" height="56" rx="8" fill="#f5f3ff" stroke="#8b5cf6" stroke-width="1"/>
    <text x="170" y="336" text-anchor="middle" dominant-baseline="central" font-size="15" font-weight="600" fill="#5b21b6">Read Chainlink data</text>
    <text x="170" y="356" text-anchor="middle" dominant-baseline="central" font-size="13" fill="#64748b">getRoundData → verify</text>
    <line x1="170" y1="374" x2="170" y2="404" stroke="#64748b" stroke-width="1.5" marker-end="url(#a)"/>
    <rect x="31" y="404" width="278" height="56" rx="8" fill="#f8fafc" stroke="#cbd5e1" stroke-width="1"/>
    <text x="170" y="422" text-anchor="middle" dominant-baseline="central" font-size="15" font-weight="600" fill="#334155">Compute outcome</text>
    <text x="170" y="442" text-anchor="middle" dominant-baseline="central" font-size="13" fill="#64748b">answer ≥ threshold?</text>
    <line x1="170" y1="460" x2="170" y2="490" stroke="#64748b" stroke-width="1.5" marker-end="url(#a)"/>
    <rect x="31" y="490" width="278" height="42" rx="21" fill="#dcfce7" stroke="#16a34a" stroke-width="1"/>
    <text x="170" y="511" text-anchor="middle" dominant-baseline="central" font-size="15" font-weight="600" fill="#15803d">MarketResolved</text>
  </g>
</svg>