<svg xmlns="http://www.w3.org/2000/svg" viewBox="0 0 420 440" font-family="Inter, system-ui, sans-serif">
  <rect x="0" y="0" width="420" height="440" rx="12" fill="#ffffff"/>
  <g transform="translate(40,40)">
    <defs><marker id="a" viewBox="0 0 10 10" refX="8" refY="5" markerWidth="6" markerHeight="6" orient="auto-start-reverse"><path d="M2 1L8 5L2 9" fill="none" stroke="#64748b" stroke-width="1.5" stroke-linecap="round" stroke-linejoin="round"/></marker></defs>
    <rect x="31" y="0" width="278" height="42" rx="21" fill="#dbeafe" stroke="#2563eb" stroke-width="1"/>
    <text x="170" y="21" text-anchor="middle" dominant-baseline="central" font-size="15" font-weight="600" fill="#1e40af">Proposer: propose()</text>
    <line x1="170" y1="42" x2="170" y2="72" stroke="#64748b" stroke-width="1.5" marker-end="url(#a)"/>
    <rect x="31" y="72" width="278" height="56" rx="8" fill="#fef3c7" stroke="#d97706" stroke-width="1"/>
    <text x="170" y="90" text-anchor="middle" dominant-baseline="central" font-size="15" font-weight="600" fill="#92400e">48h dispute window</text>
    <text x="170" y="110" text-anchor="middle" dominant-baseline="central" font-size="13" fill="#64748b">Optimistic oracle</text>
    <line x1="170" y1="128" x2="170" y2="158" stroke="#64748b" stroke-width="1.5" marker-end="url(#a)"/>
    <rect x="31" y="158" width="278" height="56" rx="8" fill="#f8fafc" stroke="#cbd5e1" stroke-width="1"/>
    <text x="170" y="176" text-anchor="middle" dominant-baseline="central" font-size="15" font-weight="600" fill="#334155">No dispute?</text>
    <text x="170" y="196" text-anchor="middle" dominant-baseline="central" font-size="13" fill="#64748b">Bond refunded</text>
    <line x1="170" y1="214" x2="170" y2="244" stroke="#64748b" stroke-width="1.5" marker-end="url(#a)"/>
    <rect x="31" y="244" width="278" height="44" rx="8" fill="#f0fdfa" stroke="#0d9488" stroke-width="1"/>
    <text x="170" y="262" text-anchor="middle" dominant-baseline="central" font-size="15" font-weight="600" fill="#134e4a">Outcome finalized</text>
    <line x1="170" y1="288" x2="170" y2="318" stroke="#64748b" stroke-width="1.5" marker-end="url(#a)"/>
    <rect x="31" y="318" width="278" height="42" rx="21" fill="#dcfce7" stroke="#16a34a" stroke-width="1"/>
    <text x="170" y="339" text-anchor="middle" dominant-baseline="central" font-size="15" font-weight="600" fill="#15803d">Market resolved</text>
  </g>
</svg>