<svg xmlns="http://www.w3.org/2000/svg" viewBox="0 0 930 156" font-family="Inter, system-ui, sans-serif">
  <rect x="0" y="0" width="930" height="156" rx="12" fill="#ffffff"/>
  <g transform="translate(40,40)">
    <defs><marker id="a" viewBox="0 0 10 10" refX="8" refY="5" markerWidth="6" markerHeight="6" orient="auto-start-reverse"><path d="M2 1L8 5L2 9" fill="none" stroke="#64748b" stroke-width="1.5" stroke-linecap="round" stroke-linejoin="round"/></marker></defs>
        <rect x="0" y="10" width="130" height="56" rx="8" fill="#fef2f2" stroke="#dc2626" stroke-width="1"/>
    <text x="65" y="28" text-anchor="middle" dominant-baseline="central" font-size="15" font-weight="600" fill="#991b1b">Oracle fails</text>
    <text x="65" y="48" text-anchor="middle" dominant-baseline="central" font-size="13" fill="#64748b">Feed down</text>
        <line x1="130" y1="38" x2="160" y2="38" stroke="#64748b" stroke-width="1.5" marker-end="url(#a)"/>
        <rect x="170" y="10" width="140" height="56" rx="8" fill="#f8fafc" stroke="#cbd5e1" stroke-width="1"/>
    <text x="240" y="28" text-anchor="middle" dominant-baseline="central" font-size="15" font-weight="600" fill="#334155">Admin proposes</text>
    <text x="240" y="48" text-anchor="middle" dominant-baseline="central" font-size="13" fill="#64748b">enableRefund</text>
        <line x1="310" y1="38" x2="340" y2="38" stroke="#64748b" stroke-width="1.5" marker-end="url(#a)"/>
        <rect x="350" y="10" width="130" height="56" rx="8" fill="#fef3c7" stroke="#d97706" stroke-width="1"/>
    <text x="415" y="28" text-anchor="middle" dominant-baseline="central" font-size="15" font-weight="600" fill="#92400e">48h timelock</text>
    <text x="415" y="48" text-anchor="middle" dominant-baseline="central" font-size="13" fill="#64748b">Challenge window</text>
        <line x1="480" y1="38" x2="510" y2="38" stroke="#64748b" stroke-width="1.5" marker-end="url(#a)"/>
        <rect x="520" y="10" width="140" height="56" rx="8" fill="#dbeafe" stroke="#2563eb" stroke-width="1"/>
    <text x="590" y="28" text-anchor="middle" dominant-baseline="central" font-size="15" font-weight="600" fill="#1e40af">Refund active</text>
    <text x="590" y="48" text-anchor="middle" dominant-baseline="central" font-size="13" fill="#64748b">Burn YES+NO</text>
        <line x1="660" y1="38" x2="690" y2="38" stroke="#64748b" stroke-width="1.5" marker-end="url(#a)"/>
        <rect x="700" y="10" width="130" height="56" rx="8" fill="#dcfce7" stroke="#16a34a" stroke-width="1"/>
    <text x="765" y="28" text-anchor="middle" dominant-baseline="central" font-size="15" font-weight="600" fill="#15803d">USDC returned</text>
    <text x="765" y="48" text-anchor="middle" dominant-baseline="central" font-size="13" fill="#64748b">Pro-rata</text>
  </g>
</svg>