<svg xmlns="http://www.w3.org/2000/svg" viewBox="0 0 610 280" font-family="Inter, system-ui, sans-serif">
  <rect x="0" y="0" width="610" height="280" rx="12" fill="#ffffff"/>
  <g transform="translate(40,40)">
    <defs><marker id="a" viewBox="0 0 10 10" refX="8" refY="5" markerWidth="6" markerHeight="6" orient="auto-start-reverse"><path d="M2 1L8 5L2 9" fill="none" stroke="context-stroke" stroke-width="1.5" stroke-linecap="round" stroke-linejoin="round"/></marker></defs>
        <rect x="0" y="0" width="200" height="56" rx="8" fill="#dbeafe" stroke="#2563eb" stroke-width="1"/>
    <text x="100" y="18" text-anchor="middle" dominant-baseline="central" font-size="15" font-weight="600" fill="#1e40af">Router.Trade events</text>
    <text x="100" y="38" text-anchor="middle" dominant-baseline="central" font-size="13" fill="#64748b">Canonical price</text>
        <rect x="0" y="70" width="200" height="56" rx="8" fill="#dbeafe" stroke="#2563eb" stroke-width="1"/>
    <text x="100" y="88" text-anchor="middle" dominant-baseline="central" font-size="15" font-weight="600" fill="#1e40af">Hook AMM swaps</text>
    <text x="100" y="108" text-anchor="middle" dominant-baseline="central" font-size="13" fill="#64748b">Analytics price</text>
        <rect x="0" y="140" width="200" height="56" rx="8" fill="#dbeafe" stroke="#2563eb" stroke-width="1"/>
    <text x="100" y="158" text-anchor="middle" dominant-baseline="central" font-size="15" font-weight="600" fill="#1e40af">CLOB matches</text>
    <text x="100" y="178" text-anchor="middle" dominant-baseline="central" font-size="13" fill="#64748b">Price ticks</text>

        <line x1="200" y1="28" x2="280" y2="28" stroke="#64748b" stroke-width="1.5" marker-end="url(#a)"/>
        <line x1="200" y1="98" x2="280" y2="98" stroke="#64748b" stroke-width="1.5" marker-end="url(#a)"/>
        <line x1="200" y1="168" x2="280" y2="168" stroke="#64748b" stroke-width="1.5" marker-end="url(#a)"/>
    <line x1="280" y1="28" x2="280" y2="168" stroke="#64748b" stroke-width="1.5"/>
        <line x1="280" y1="98" x2="320" y2="98" stroke="#64748b" stroke-width="1.5" marker-end="url(#a)"/>

        <rect x="330" y="72" width="180" height="56" rx="8" fill="#dcfce7" stroke="#16a34a" stroke-width="1"/>
    <text x="420" y="90" text-anchor="middle" dominant-baseline="central" font-size="15" font-weight="600" fill="#15803d">Combined chart</text>
    <text x="420" y="110" text-anchor="middle" dominant-baseline="central" font-size="13" fill="#64748b">YES price / time</text>
  </g>
</svg>