<svg xmlns="http://www.w3.org/2000/svg" viewBox="0 0 730 280" font-family="Inter, system-ui, sans-serif">
  <rect x="0" y="0" width="730" height="280" rx="12" fill="#ffffff"/>
  <g transform="translate(40,40)">
    <defs><marker id="a" viewBox="0 0 10 10" refX="8" refY="5" markerWidth="6" markerHeight="6" orient="auto-start-reverse"><path d="M2 1L8 5L2 9" fill="none" stroke="#64748b" stroke-width="1.5" stroke-linecap="round" stroke-linejoin="round"/></marker></defs>
        <rect x="0" y="60" width="150" height="44" rx="8" fill="#dbeafe" stroke="#2563eb" stroke-width="1"/>
    <text x="75" y="78" text-anchor="middle" dominant-baseline="central" font-size="15" font-weight="600" fill="#1e40af">PrediX event</text>
        <line x1="150" y1="82" x2="200" y2="82" stroke="#64748b" stroke-width="1.5" marker-end="url(#a)"/>
        <rect x="210" y="60" width="160" height="44" rx="8" fill="#f5f3ff" stroke="#8b5cf6" stroke-width="1"/>
    <text x="290" y="78" text-anchor="middle" dominant-baseline="central" font-size="15" font-weight="600" fill="#5b21b6">Notification filter</text>

    <line x1="370" y1="82" x2="420" y2="82" stroke="#64748b" stroke-width="1.5"/>
    <line x1="420" y1="14" x2="420" y2="150" stroke="#64748b" stroke-width="1.5"/>

        <line x1="420" y1="14" x2="460" y2="14" stroke="#64748b" stroke-width="1.5" marker-end="url(#a)"/>
        <rect x="470" y="0" width="160" height="56" rx="8" fill="#f8fafc" stroke="#cbd5e1" stroke-width="1"/>
    <text x="550" y="18" text-anchor="middle" dominant-baseline="central" font-size="15" font-weight="600" fill="#334155">Push</text>
    <text x="550" y="38" text-anchor="middle" dominant-baseline="central" font-size="13" fill="#64748b">Browser / mobile</text>
        <line x1="420" y1="48" x2="460" y2="48" stroke="#64748b" stroke-width="1.5" marker-end="url(#a)"/>
        <rect x="470" y="34" width="160" height="56" rx="8" fill="#f8fafc" stroke="#cbd5e1" stroke-width="1"/>
    <text x="550" y="52" text-anchor="middle" dominant-baseline="central" font-size="15" font-weight="600" fill="#334155">Email digest</text>
    <text x="550" y="72" text-anchor="middle" dominant-baseline="central" font-size="13" fill="#64748b">Daily / weekly</text>
        <line x1="420" y1="82" x2="460" y2="82" stroke="#64748b" stroke-width="1.5" marker-end="url(#a)"/>
        <rect x="470" y="68" width="160" height="56" rx="8" fill="#f8fafc" stroke="#cbd5e1" stroke-width="1"/>
    <text x="550" y="86" text-anchor="middle" dominant-baseline="central" font-size="15" font-weight="600" fill="#334155">Discord</text>
    <text x="550" y="106" text-anchor="middle" dominant-baseline="central" font-size="13" fill="#64748b">Webhook</text>
        <line x1="420" y1="116" x2="460" y2="116" stroke="#64748b" stroke-width="1.5" marker-end="url(#a)"/>
        <rect x="470" y="102" width="160" height="56" rx="8" fill="#f8fafc" stroke="#cbd5e1" stroke-width="1"/>
    <text x="550" y="120" text-anchor="middle" dominant-baseline="central" font-size="15" font-weight="600" fill="#334155">Telegram</text>
    <text x="550" y="140" text-anchor="middle" dominant-baseline="central" font-size="13" fill="#64748b">Bot alerts</text>
        <line x1="420" y1="150" x2="460" y2="150" stroke="#64748b" stroke-width="1.5" marker-end="url(#a)"/>
        <rect x="470" y="136" width="160" height="56" rx="8" fill="#f8fafc" stroke="#cbd5e1" stroke-width="1"/>
    <text x="550" y="154" text-anchor="middle" dominant-baseline="central" font-size="15" font-weight="600" fill="#334155">In-app</text>
    <text x="550" y="174" text-anchor="middle" dominant-baseline="central" font-size="13" fill="#64748b">Notification center</text>
  </g>
</svg>