<svg xmlns="http://www.w3.org/2000/svg" viewBox="0 0 700 220" font-family="Inter, system-ui, sans-serif">
  <rect x="0" y="0" width="700" height="220" rx="12" fill="#ffffff"/>
  <g transform="translate(40,40)">
    <defs><marker id="a" viewBox="0 0 10 10" refX="8" refY="5" markerWidth="6" markerHeight="6" orient="auto-start-reverse"><path d="M2 1L8 5L2 9" fill="none" stroke="context-stroke" stroke-width="1.5" stroke-linecap="round" stroke-linejoin="round"/></marker></defs>
    <rect x="0" y="0" width="600" height="44" rx="8" fill="#dbeafe" stroke="#2563eb" stroke-width="1"/>
    <text x="300" y="22" text-anchor="middle" dominant-baseline="central" font-size="14" font-weight="600" fill="#1e40af">Total value · Realized PnL · Unrealized PnL · Win rate · Accuracy</text>

    <line x1="300" y1="44" x2="300" y2="74" stroke="#64748b" stroke-width="1.5"/>

        <rect x="0" y="80" width="90" height="44" rx="8" fill="#f8fafc" stroke="#cbd5e1" stroke-width="1"/>
    <text x="45" y="98" text-anchor="middle" dominant-baseline="central" font-size="15" font-weight="600" fill="#334155">Active</text>
        <rect x="104" y="80" width="90" height="44" rx="8" fill="#f8fafc" stroke="#cbd5e1" stroke-width="1"/>
    <text x="149" y="98" text-anchor="middle" dominant-baseline="central" font-size="15" font-weight="600" fill="#334155">Orders</text>
        <rect x="208" y="80" width="90" height="44" rx="8" fill="#f8fafc" stroke="#cbd5e1" stroke-width="1"/>
    <text x="253" y="98" text-anchor="middle" dominant-baseline="central" font-size="15" font-weight="600" fill="#334155">LP</text>
        <rect x="312" y="80" width="90" height="44" rx="8" fill="#f8fafc" stroke="#cbd5e1" stroke-width="1"/>
    <text x="357" y="98" text-anchor="middle" dominant-baseline="central" font-size="15" font-weight="600" fill="#334155">History</text>
        <rect x="416" y="80" width="100" height="44" rx="8" fill="#f8fafc" stroke="#cbd5e1" stroke-width="1"/>
    <text x="466" y="98" text-anchor="middle" dominant-baseline="central" font-size="15" font-weight="600" fill="#334155">Calibration</text>
        <rect x="530" y="80" width="70" height="44" rx="8" fill="#f8fafc" stroke="#cbd5e1" stroke-width="1"/>
    <text x="565" y="98" text-anchor="middle" dominant-baseline="central" font-size="15" font-weight="600" fill="#334155">Replay</text>
  </g>
</svg>