<svg xmlns="http://www.w3.org/2000/svg" viewBox="0 0 560 320" font-family="Inter, system-ui, sans-serif">
  <rect x="0" y="0" width="560" height="320" rx="12" fill="#ffffff"/>
  <g transform="translate(40,40)">
    <defs><marker id="a" viewBox="0 0 10 10" refX="8" refY="5" markerWidth="6" markerHeight="6" orient="auto-start-reverse"><path d="M2 1L8 5L2 9" fill="none" stroke="#64748b" stroke-width="1.5" stroke-linecap="round" stroke-linejoin="round"/></marker></defs>
        <rect x="100" y="0" width="260" height="42" rx="21" fill="#dbeafe" stroke="#2563eb" stroke-width="1"/>
    <text x="230" y="21" text-anchor="middle" dominant-baseline="central" font-size="15" font-weight="600" fill="#1e40af">Buy 100 YES @ $0.50 = $50</text>

    <line x1="230" y1="42" x2="230" y2="70" stroke="#64748b" stroke-width="1.5"/>
    <line x1="100" y1="70" x2="360" y2="70" stroke="#64748b" stroke-width="1.5"/>
        <line x1="100" y1="70" x2="100" y2="100" stroke="#64748b" stroke-width="1.5" marker-end="url(#a)"/>
        <line x1="360" y1="70" x2="360" y2="100" stroke="#64748b" stroke-width="1.5" marker-end="url(#a)"/>

        <rect x="10" y="100" width="200" height="56" rx="8" fill="#f8fafc" stroke="#cbd5e1" stroke-width="1"/>
    <text x="110" y="118" text-anchor="middle" dominant-baseline="central" font-size="15" font-weight="600" fill="#334155">Sell 40 @ $0.60</text>
    <text x="110" y="138" text-anchor="middle" dominant-baseline="central" font-size="13" fill="#64748b">= $24 received</text>
        <line x1="110" y1="156" x2="110" y2="186" stroke="#64748b" stroke-width="1.5" marker-end="url(#a)"/>
    <rect x="30" y="186" width="170" height="38" rx="19" fill="#dcfce7" stroke="#16a34a" stroke-width="1"/>
    <text x="115" y="205" text-anchor="middle" dominant-baseline="central" font-size="14" font-weight="600" fill="#15803d">Realized: +$4</text>

        <rect x="260" y="100" width="200" height="56" rx="8" fill="#f8fafc" stroke="#cbd5e1" stroke-width="1"/>
    <text x="360" y="118" text-anchor="middle" dominant-baseline="central" font-size="15" font-weight="600" fill="#334155">Hold 60 YES</text>
    <text x="360" y="138" text-anchor="middle" dominant-baseline="central" font-size="13" fill="#64748b">Cost $0.50, spot $0.55</text>
        <line x1="360" y1="156" x2="360" y2="186" stroke="#64748b" stroke-width="1.5" marker-end="url(#a)"/>
    <rect x="280" y="186" width="170" height="38" rx="19" fill="#fef3c7" stroke="#d97706" stroke-width="1"/>
    <text x="365" y="205" text-anchor="middle" dominant-baseline="central" font-size="14" font-weight="600" fill="#92400e">Unrealized: +$3</text>
  </g>
</svg>