<svg xmlns="http://www.w3.org/2000/svg" viewBox="0 0 620 310" font-family="Inter, system-ui, sans-serif">
  <rect x="0" y="0" width="620" height="310" rx="12" fill="#ffffff"/>
  <g transform="translate(40,40)">
    <defs><marker id="a" viewBox="0 0 10 10" refX="8" refY="5" markerWidth="6" markerHeight="6" orient="auto-start-reverse"><path d="M2 1L8 5L2 9" fill="none" stroke="#64748b" stroke-width="1.5" stroke-linecap="round" stroke-linejoin="round"/></marker></defs>
        <rect x="170" y="70" width="200" height="56" rx="8" fill="#dbeafe" stroke="#2563eb" stroke-width="1"/>
    <text x="270" y="88" text-anchor="middle" dominant-baseline="central" font-size="15" font-weight="600" fill="#1e40af">Market discussion</text>
    <text x="270" y="108" text-anchor="middle" dominant-baseline="central" font-size="13" fill="#64748b">Comment tab</text>

    <line x1="270" y1="70" x2="270" y2="40" stroke="#64748b" stroke-width="1.5"/>
    <line x1="100" y1="40" x2="440" y2="40" stroke="#64748b" stroke-width="1.5"/>

        <line x1="100" y1="40" x2="100" y2="10" stroke="#64748b" stroke-width="1.5" marker-end="url(#a)"/>
        <rect x="40" y="-34" width="130" height="56" rx="8" fill="#f8fafc" stroke="#cbd5e1" stroke-width="1"/>
    <text x="105" y="-16" text-anchor="middle" dominant-baseline="central" font-size="15" font-weight="600" fill="#334155">Comment list</text>
    <text x="105" y="4" text-anchor="middle" dominant-baseline="central" font-size="13" fill="#64748b">Sort: new / top</text>
        <line x1="270" y1="40" x2="270" y2="10" stroke="#64748b" stroke-width="1.5" marker-end="url(#a)"/>
        <rect x="210" y="-34" width="130" height="44" rx="8" fill="#f8fafc" stroke="#cbd5e1" stroke-width="1"/>
    <text x="275" y="-16" text-anchor="middle" dominant-baseline="central" font-size="15" font-weight="600" fill="#334155">Post comment</text>
        <line x1="440" y1="40" x2="440" y2="10" stroke="#64748b" stroke-width="1.5" marker-end="url(#a)"/>
        <rect x="380" y="-34" width="130" height="56" rx="8" fill="#f8fafc" stroke="#cbd5e1" stroke-width="1"/>
    <text x="445" y="-16" text-anchor="middle" dominant-baseline="central" font-size="15" font-weight="600" fill="#334155">Reply thread</text>
    <text x="445" y="4" text-anchor="middle" dominant-baseline="central" font-size="13" fill="#64748b">2 levels</text>

    <line x1="270" y1="126" x2="270" y2="150" stroke="#64748b" stroke-width="1.5"/>
    <line x1="140" y1="150" x2="400" y2="150" stroke="#64748b" stroke-width="1.5"/>
        <line x1="140" y1="150" x2="140" y2="170" stroke="#64748b" stroke-width="1.5" marker-end="url(#a)"/>
        <rect x="80" y="170" width="130" height="44" rx="8" fill="#f8fafc" stroke="#cbd5e1" stroke-width="1"/>
    <text x="145" y="188" text-anchor="middle" dominant-baseline="central" font-size="15" font-weight="600" fill="#334155">Up/down vote</text>
        <line x1="400" y1="150" x2="400" y2="170" stroke="#64748b" stroke-width="1.5" marker-end="url(#a)"/>
        <rect x="340" y="170" width="130" height="56" rx="8" fill="#f8fafc" stroke="#cbd5e1" stroke-width="1"/>
    <text x="405" y="188" text-anchor="middle" dominant-baseline="central" font-size="15" font-weight="600" fill="#334155">@mention</text>
    <text x="405" y="208" text-anchor="middle" dominant-baseline="central" font-size="13" fill="#64748b">Tag users</text>
  </g>
</svg>