<svg xmlns="http://www.w3.org/2000/svg" viewBox="0 0 620 250" font-family="Inter, system-ui, sans-serif">
  <rect x="0" y="0" width="620" height="250" rx="12" fill="#ffffff"/>
  <g transform="translate(40,40)">
    <defs><marker id="a" viewBox="0 0 10 10" refX="8" refY="5" markerWidth="6" markerHeight="6" orient="auto-start-reverse"><path d="M2 1L8 5L2 9" fill="none" stroke="context-stroke" stroke-width="1.5" stroke-linecap="round" stroke-linejoin="round"/></marker></defs>
        <rect x="160" y="0" width="200" height="42" rx="21" fill="#dbeafe" stroke="#2563eb" stroke-width="1"/>
    <text x="260" y="21" text-anchor="middle" dominant-baseline="central" font-size="15" font-weight="600" fill="#1e40af">Trader profile</text>
    <line x1="260" y1="42" x2="260" y2="70" stroke="#64748b" stroke-width="1.5"/>
    <line x1="60" y1="70" x2="460" y2="70" stroke="#64748b" stroke-width="1.5"/>
        <line x1="60" y1="70" x2="60" y2="100" stroke="#64748b" stroke-width="1.5" marker-end="url(#a)"/>
        <line x1="180" y1="70" x2="180" y2="100" stroke="#64748b" stroke-width="1.5" marker-end="url(#a)"/>
        <line x1="340" y1="70" x2="340" y2="100" stroke="#64748b" stroke-width="1.5" marker-end="url(#a)"/>
        <line x1="460" y1="70" x2="460" y2="100" stroke="#64748b" stroke-width="1.5" marker-end="url(#a)"/>
        <rect x="10" y="100" width="110" height="56" rx="8" fill="#f8fafc" stroke="#cbd5e1" stroke-width="1"/>
    <text x="65" y="118" text-anchor="middle" dominant-baseline="central" font-size="15" font-weight="600" fill="#334155">KPIs</text>
    <text x="65" y="138" text-anchor="middle" dominant-baseline="central" font-size="13" fill="#64748b">Vol · PnL · Win</text>
        <rect x="140" y="100" width="100" height="56" rx="8" fill="#f8fafc" stroke="#cbd5e1" stroke-width="1"/>
    <text x="190" y="118" text-anchor="middle" dominant-baseline="central" font-size="15" font-weight="600" fill="#334155">Positions</text>
    <text x="190" y="138" text-anchor="middle" dominant-baseline="central" font-size="13" fill="#64748b">Public</text>
        <rect x="280" y="100" width="130" height="56" rx="8" fill="#f8fafc" stroke="#cbd5e1" stroke-width="1"/>
    <text x="345" y="118" text-anchor="middle" dominant-baseline="central" font-size="15" font-weight="600" fill="#334155">History</text>
    <text x="345" y="138" text-anchor="middle" dominant-baseline="central" font-size="13" fill="#64748b">Trade log</text>
        <rect x="420" y="100" width="100" height="56" rx="8" fill="#f8fafc" stroke="#cbd5e1" stroke-width="1"/>
    <text x="470" y="118" text-anchor="middle" dominant-baseline="central" font-size="15" font-weight="600" fill="#334155">Badges</text>
    <text x="470" y="138" text-anchor="middle" dominant-baseline="central" font-size="13" fill="#64748b">Earned</text>
  </g>
</svg>