<svg xmlns="http://www.w3.org/2000/svg" viewBox="0 0 620 350" font-family="Inter, system-ui, sans-serif">
  <rect x="0" y="0" width="620" height="350" rx="12" fill="#ffffff"/>
  <g transform="translate(40,40)">
    <defs><marker id="a" viewBox="0 0 10 10" refX="8" refY="5" markerWidth="6" markerHeight="6" orient="auto-start-reverse"><path d="M2 1L8 5L2 9" fill="none" stroke="context-stroke" stroke-width="1.5" stroke-linecap="round" stroke-linejoin="round"/></marker></defs>
        <rect x="160" y="0" width="200" height="42" rx="21" fill="#dbeafe" stroke="#2563eb" stroke-width="1"/>
    <text x="260" y="21" text-anchor="middle" dominant-baseline="central" font-size="15" font-weight="600" fill="#1e40af">You trade on PrediX</text>

    <line x1="260" y1="42" x2="260" y2="70" stroke="#64748b" stroke-width="1.5"/>
    <line x1="60" y1="70" x2="460" y2="70" stroke="#64748b" stroke-width="1.5"/>
        <line x1="60" y1="70" x2="60" y2="100" stroke="#64748b" stroke-width="1.5" marker-end="url(#a)"/>
        <line x1="190" y1="70" x2="190" y2="100" stroke="#64748b" stroke-width="1.5" marker-end="url(#a)"/>
        <line x1="330" y1="70" x2="330" y2="100" stroke="#64748b" stroke-width="1.5" marker-end="url(#a)"/>
        <line x1="460" y1="70" x2="460" y2="100" stroke="#64748b" stroke-width="1.5" marker-end="url(#a)"/>

        <rect x="10" y="100" width="110" height="44" rx="8" fill="#f5f3ff" stroke="#8b5cf6" stroke-width="1"/>
    <text x="65" y="118" text-anchor="middle" dominant-baseline="central" font-size="15" font-weight="600" fill="#5b21b6">Streak</text>
        <rect x="140" y="100" width="110" height="44" rx="8" fill="#f0fdfa" stroke="#0d9488" stroke-width="1"/>
    <text x="195" y="118" text-anchor="middle" dominant-baseline="central" font-size="15" font-weight="600" fill="#134e4a">Badge</text>
        <rect x="270" y="100" width="130" height="44" rx="8" fill="#fef3c7" stroke="#d97706" stroke-width="1"/>
    <text x="335" y="118" text-anchor="middle" dominant-baseline="central" font-size="15" font-weight="600" fill="#92400e">Daily challenge</text>
        <rect x="420" y="100" width="110" height="44" rx="8" fill="#dbeafe" stroke="#2563eb" stroke-width="1"/>
    <text x="475" y="118" text-anchor="middle" dominant-baseline="central" font-size="15" font-weight="600" fill="#1e40af">Reward box</text>

        <line x1="60" y1="144" x2="60" y2="174" stroke="#64748b" stroke-width="1.5" marker-end="url(#a)"/>
        <line x1="190" y1="144" x2="190" y2="174" stroke="#64748b" stroke-width="1.5" marker-end="url(#a)"/>
        <line x1="330" y1="144" x2="330" y2="174" stroke="#64748b" stroke-width="1.5" marker-end="url(#a)"/>
        <line x1="460" y1="144" x2="460" y2="174" stroke="#64748b" stroke-width="1.5" marker-end="url(#a)"/>
    <line x1="60" y1="174" x2="460" y2="174" stroke="#64748b" stroke-width="1.5"/>
        <line x1="260" y1="174" x2="260" y2="204" stroke="#64748b" stroke-width="1.5" marker-end="url(#a)"/>

        <rect x="160" y="210" width="200" height="42" rx="21" fill="#dcfce7" stroke="#16a34a" stroke-width="1"/>
    <text x="260" y="231" text-anchor="middle" dominant-baseline="central" font-size="15" font-weight="600" fill="#15803d">PRX / USDC / NFT</text>
  </g>
</svg>