<svg xmlns="http://www.w3.org/2000/svg" viewBox="0 0 660 350" font-family="Inter, system-ui, sans-serif">
  <rect x="0" y="0" width="660" height="350" rx="12" fill="#ffffff"/>
  <g transform="translate(40,40)">
    <text x="150" y="22" text-anchor="end" font-size="14" fill="#0f172a">No lock (stkPRX)</text>
    <rect x="165" y="4" width="140" height="32" rx="6" fill="#f8fafc" stroke="#cbd5e1" stroke-width="1"/>
    <text x="315" y="22" font-size="15" font-weight="600" fill="#334155">1.0×</text>
    <text x="150" y="68" text-anchor="end" font-size="14" fill="#0f172a">Lock 3 months</text>
    <rect x="165" y="50" width="154" height="32" rx="6" fill="#e0f2fe" stroke="#0284c7" stroke-width="1"/>
    <text x="329" y="68" font-size="15" font-weight="600" fill="#075985">1.1×</text>
    <text x="150" y="114" text-anchor="end" font-size="14" fill="#0f172a">Lock 6 months</text>
    <rect x="165" y="96" width="175" height="32" rx="6" fill="#dbeafe" stroke="#2563eb" stroke-width="1"/>
    <text x="350" y="114" font-size="15" font-weight="600" fill="#1e40af">1.25×</text>
    <text x="150" y="160" text-anchor="end" font-size="14" fill="#0f172a">Lock 12 months</text>
    <rect x="165" y="142" width="210" height="32" rx="6" fill="#dbeafe" stroke="#2563eb" stroke-width="1"/>
    <text x="385" y="160" font-size="15" font-weight="600" fill="#1e40af">1.5×</text>
    <text x="150" y="206" text-anchor="end" font-size="14" fill="#0f172a">Lock 24 months</text>
    <rect x="165" y="188" width="280" height="32" rx="6" fill="#c7d2fe" stroke="#4f46e5" stroke-width="1"/>
    <text x="455" y="206" font-size="15" font-weight="600" fill="#3730a3">2.0×</text>
    <text x="150" y="252" text-anchor="end" font-size="14" fill="#0f172a">Lock 48 months</text>
    <rect x="165" y="234" width="350" height="32" rx="6" fill="#dcfce7" stroke="#16a34a" stroke-width="1"/>
    <text x="525" y="252" font-size="15" font-weight="600" fill="#15803d">2.5×</text>
  </g>
</svg>