<svg xmlns="http://www.w3.org/2000/svg" viewBox="0 0 680 290" font-family="Inter, system-ui, sans-serif">
  <rect x="0" y="0" width="680" height="290" rx="12" fill="#ffffff"/>
  <g transform="translate(40,40)">
    <defs><marker id="a" viewBox="0 0 10 10" refX="8" refY="5" markerWidth="6" markerHeight="6" orient="auto-start-reverse"><path d="M2 1L8 5L2 9" fill="none" stroke="context-stroke" stroke-width="1.5" stroke-linecap="round" stroke-linejoin="round"/></marker></defs>
        <rect x="180" y="0" width="200" height="56" rx="8" fill="#f8fafc" stroke="#cbd5e1" stroke-width="1"/>
    <text x="280" y="18" text-anchor="middle" dominant-baseline="central" font-size="15" font-weight="600" fill="#334155">Privacy level</text>
    <text x="280" y="38" text-anchor="middle" dominant-baseline="central" font-size="13" fill="#64748b">Choose in settings</text>
    <line x1="280" y1="56" x2="280" y2="80" stroke="#64748b" stroke-width="1.5"/>
    <line x1="60" y1="80" x2="500" y2="80" stroke="#64748b" stroke-width="1.5"/>
        <line x1="60" y1="80" x2="60" y2="110" stroke="#64748b" stroke-width="1.5" marker-end="url(#a)"/>
        <line x1="210" y1="80" x2="210" y2="110" stroke="#64748b" stroke-width="1.5" marker-end="url(#a)"/>
        <line x1="350" y1="80" x2="350" y2="110" stroke="#64748b" stroke-width="1.5" marker-end="url(#a)"/>
        <line x1="500" y1="80" x2="500" y2="110" stroke="#64748b" stroke-width="1.5" marker-end="url(#a)"/>

        <rect x="0" y="110" width="130" height="56" rx="8" fill="#dcfce7" stroke="#16a34a" stroke-width="1"/>
    <text x="65" y="128" text-anchor="middle" dominant-baseline="central" font-size="15" font-weight="600" fill="#15803d">Default</text>
    <text x="65" y="148" text-anchor="middle" dominant-baseline="central" font-size="13" fill="#64748b">All public</text>
        <rect x="150" y="110" width="130" height="56" rx="8" fill="#dbeafe" stroke="#2563eb" stroke-width="1"/>
    <text x="215" y="128" text-anchor="middle" dominant-baseline="central" font-size="15" font-weight="600" fill="#1e40af">Hide positions</text>
    <text x="215" y="148" text-anchor="middle" dominant-baseline="central" font-size="13" fill="#64748b">Profile visible</text>
        <rect x="290" y="110" width="130" height="56" rx="8" fill="#fef3c7" stroke="#d97706" stroke-width="1"/>
    <text x="355" y="128" text-anchor="middle" dominant-baseline="central" font-size="15" font-weight="600" fill="#92400e">Hide history</text>
    <text x="355" y="148" text-anchor="middle" dominant-baseline="central" font-size="13" fill="#64748b">Aggregate only</text>
        <rect x="440" y="110" width="130" height="56" rx="8" fill="#fef2f2" stroke="#dc2626" stroke-width="1"/>
    <text x="505" y="128" text-anchor="middle" dominant-baseline="central" font-size="15" font-weight="600" fill="#991b1b">Anonymous</text>
    <text x="505" y="148" text-anchor="middle" dominant-baseline="central" font-size="13" fill="#64748b">Address hidden</text>
    
    <text x="280" y="192" text-anchor="middle" font-size="12" fill="#64748b">On-chain data always public — app settings control UI display only</text>
  </g>
</svg>